<svg width="60" height="60" viewBox="0 0 60 60" fill="none" xmlns="http://www.w3.org/2000/svg">
<rect width="60" height="60" fill="#231F20"/>
<path d="M36.9346 19.7319H23.8125V41.1643H36.9346V19.7319Z" fill="#FF5F00"/>
<path d="M25.1639 30.45C25.1623 28.3862 25.6301 26.3491 26.532 24.4929C27.4339 22.6367 28.7462 21.0099 30.3696 19.7357C28.3589 18.1555 25.9442 17.1729 23.4015 16.9001C20.8588 16.6274 18.2906 17.0755 15.9905 18.1933C13.6905 19.311 11.7512 21.0533 10.3945 23.2211C9.03783 25.3888 8.31836 27.8946 8.31836 30.4519C8.31836 33.0092 9.03783 35.5149 10.3945 37.6826C11.7512 39.8504 13.6905 41.5927 15.9905 42.7104C18.2906 43.8282 20.8588 44.2763 23.4015 44.0036C25.9442 43.7308 28.3589 42.7482 30.3696 41.168C28.7457 39.8934 27.4331 38.2661 26.5311 36.4091C25.6292 34.5522 25.1617 32.5143 25.1639 30.45Z" fill="#EB001B"/>
<path d="M51.1206 38.8964V38.4573H51.3099V38.3664H50.8594V38.4573H51.0373V38.8964H51.1206ZM51.9952 38.8964V38.3664H51.8589L51.6999 38.745L51.5408 38.3664H51.4046V38.8964H51.503V38.4951L51.6506 38.8396H51.7529L51.9005 38.4951V38.8964H51.9952Z" fill="#F79E1B"/>
<path d="M52.4233 30.45C52.4233 33.0075 51.7036 35.5133 50.3467 37.6812C48.9897 39.849 47.0502 41.5913 44.7499 42.7089C42.4495 43.8265 39.8811 44.2743 37.3382 44.0012C34.7954 43.728 32.3806 42.7449 30.3701 41.1643C31.9929 39.8889 33.3048 38.2617 34.2069 36.4054C35.1091 34.549 35.5778 32.512 35.5778 30.4481C35.5778 28.3842 35.1091 26.3472 34.2069 24.4908C33.3048 22.6345 31.9929 21.0073 30.3701 19.7319C32.3806 18.1513 34.7954 17.1682 37.3382 16.895C39.8811 16.6219 42.4495 17.0697 44.7499 18.1873C47.0502 19.3049 48.9897 21.0472 50.3467 23.215C51.7036 25.3828 52.4233 27.8887 52.4233 30.4462V30.45Z" fill="#F79E1B"/>
</svg>
