<svg width="60" height="60" viewBox="0 0 60 60" fill="none" xmlns="http://www.w3.org/2000/svg">
<rect width="60" height="60" fill="#2B3797"/>
<g clip-path="url(#clip0_68_698)">
<path d="M29.2104 31.1748L28.7242 33.6029C28.5101 34.5873 27.9171 35.2443 26.7058 35.2443C25.3154 35.2443 24.9484 34.3821 25.2534 33.1686C25.6852 31.4474 27.0894 30.9346 29.2104 31.1748ZM31.3999 27.7032L29.9218 27.7976L29.4543 30.175C28.8891 30.155 28.7113 30.1372 28.0468 30.1372C25.9665 30.1372 24.151 31.0115 23.6714 33.0627C23.2392 34.9119 24.2898 36.3472 26.5807 36.3472C28.9274 36.3472 29.9484 35.123 30.3153 33.4013L31.3999 27.7032Z" fill="white"/>
<path d="M15.3636 31.2784C13.1961 31.081 11.3315 31.261 11.3011 31.9969C11.2542 33.1019 14.8737 32.1378 14.8039 34.1707C14.702 37.1573 9.66925 36.4704 8.42383 36.0901L8.64989 35.2038C10.7971 35.5445 13.0623 35.5728 13.1121 34.3884C13.1653 33.1297 9.53087 34.2613 9.61606 32.223C9.67964 30.7046 11.9511 29.8859 15.669 30.4319L15.3636 31.2784Z" fill="white"/>
<path d="M21.2085 33.31C20.8955 34.5567 19.9069 35.3396 18.7297 35.3396C17.4988 35.3396 16.9449 34.6261 17.2748 33.31C17.5881 32.0633 18.5884 31.2264 19.7652 31.2264C20.9413 31.2264 21.5214 32.0633 21.2085 33.31ZM19.9547 30.2058C17.7992 30.2058 16.0664 31.4529 15.6404 33.31C15.2132 35.1684 16.3739 36.415 18.5285 36.415C20.6832 36.415 22.4165 35.1684 22.8428 33.31C23.27 31.4529 22.1098 30.2058 19.9547 30.2058Z" fill="white"/>
<path d="M44.8601 36.3835H42.9864C41.8502 35.3151 39.6765 32.8605 38.0762 30.2628H39.4512C40.9709 32.3597 44.8601 36.3835 44.8601 36.3835Z" fill="white"/>
<path d="M46.8231 24.2264L47.685 22.4291L47.931 24.2563L49.6888 23.6413L48.4604 25.2162L49.7927 26.2484L48.0145 26.386L47.9164 28.2859L46.9278 26.8818L45.4746 28.2215L46.0194 26.3336L44.3057 26.1013L45.9737 25.151L45.2893 23.5249L46.8231 24.2264Z" fill="white"/>
<path d="M50.4774 33.3289C50.1595 34.5951 49.1556 35.3904 47.96 35.3904C46.71 35.3904 46.1465 34.6657 46.4823 33.3289C46.8002 32.0627 47.8158 31.2124 49.011 31.2124C50.2069 31.2124 50.7958 32.0627 50.4774 33.3289ZM49.2038 30.1748C47.015 30.1748 45.2552 31.4418 44.8213 33.3289C44.3879 35.2163 45.5668 36.4829 47.7556 36.4829C49.9447 36.4829 51.705 35.2163 52.138 33.3289C52.5718 31.4418 51.3929 30.1748 49.2038 30.1748Z" fill="white"/>
<path d="M36.6562 35.8618C40.1951 33.8962 43.269 30.8755 45.4494 28.2642C43.8819 33.1702 40.1087 35.8106 36.6562 35.8618Z" fill="#ED1C24"/>
<path d="M35.2553 31.1163C35.9331 31.1163 36.3021 31.3623 36.3021 31.8323C36.3021 33.0798 33.8699 32.9975 32.7973 32.7789C33.1746 31.8452 34.0265 31.1163 35.2553 31.1163ZM37.7599 31.7641C37.7599 30.8595 37.0389 30.1946 35.4029 30.1946C32.7495 30.1946 31.0254 31.9171 31.0254 34.0493C31.0254 35.4264 32.1686 36.5709 34.2567 36.5709C35.6954 36.5709 36.6562 35.8619 36.6562 35.8619C34.8252 36.0581 32.5767 35.8619 32.5767 33.903C32.5767 33.8253 32.5808 33.7476 32.587 33.6699C35.0854 34.1885 37.7599 33.561 37.7599 31.7641Z" fill="white"/>
</g>
<defs>
<clipPath id="clip0_68_698">
<rect width="44.6512" height="15" fill="white" transform="translate(8 22)"/>
</clipPath>
</defs>
</svg>
