<svg width="60" height="60" viewBox="0 0 60 60" fill="none" xmlns="http://www.w3.org/2000/svg">
<rect width="60" height="60" fill="#C7D540"/>
<path d="M37.484 14C34.4625 13.9986 31.5093 14.8979 29.0021 16.583C28.8295 16.7009 27.6366 17.5525 27.5841 17.594C25.6024 19.0831 24.2718 19.3407 22.4496 18.8844C22.3382 18.856 21.816 18.677 21.6521 18.6136C19.9502 17.9733 18.1193 17.7505 16.3133 17.9641C14.5073 18.1777 12.7791 18.8214 11.2738 19.8411C9.76844 20.8608 8.53005 22.2268 7.66267 23.8241C6.7953 25.4214 6.32429 27.2035 6.28922 29.0205C6.25416 30.8375 6.65606 32.6364 7.46116 34.2659C8.26626 35.8955 9.45103 37.3081 10.9159 38.3851C12.3807 39.462 14.0829 40.1718 15.8793 40.4549C17.6757 40.7379 19.5138 40.5859 21.2391 40.0115C23.9572 39.1993 25.432 39.422 27.1384 40.6251C27.4793 40.8653 28.3008 41.3915 28.4712 41.5159C30.4134 42.9402 32.6657 43.8842 35.0434 44.2705C37.4212 44.6569 39.8567 44.4746 42.1504 43.7386C44.444 43.0026 46.5305 41.7338 48.2387 40.0364C49.9469 38.3389 51.2282 36.261 51.9776 33.9731C52.727 31.6852 52.9232 29.2523 52.55 26.874C52.1768 24.4957 51.2449 22.2396 49.8307 20.2907C48.4165 18.3418 46.5602 16.7556 44.414 15.6622C42.2679 14.5687 39.893 13.9991 37.484 14Z" fill="#007858"/>
<path d="M31.9851 31.5899C31.5511 32.0168 30.9852 32.2841 30.3797 32.3483C29.7742 32.4126 29.1648 32.2699 28.6509 31.9437L27.6393 33.5485C28.5157 34.102 29.5535 34.3436 30.5845 34.2343C31.6155 34.1249 32.5794 33.6709 33.32 32.9459L31.9851 31.5899ZM30.1628 25.0527C29.3273 25.0394 28.5039 25.2535 27.7809 25.6721C27.0578 26.0907 26.4623 26.698 26.0582 27.429C25.6541 28.1599 25.4566 28.9869 25.4869 29.8215C25.5171 30.656 25.774 31.4666 26.23 32.1664L34.572 28.603C34.3372 27.6052 33.7761 26.7143 32.9775 26.0712C32.1788 25.4281 31.1883 25.0697 30.1628 25.0527ZM27.3989 29.9392C27.3358 29.3626 27.4599 28.7809 27.7528 28.2801C28.0458 27.7793 28.4921 27.3858 29.0258 27.1577C29.5596 26.9297 30.1526 26.8792 30.7173 27.0136C31.2819 27.148 31.7885 27.4602 32.162 27.9043L27.3989 29.9392ZM37.1917 22.9806V31.8651L38.7343 32.5048L38.0067 34.2516L36.4772 33.6184C36.1693 33.4867 35.9076 33.2662 35.7256 32.9852C35.5224 32.658 35.4198 32.2784 35.4307 31.8934V22.9806H37.1917ZM23.7588 22.9806V31.8651L25.2883 32.5048L24.5607 34.2516L23.0313 33.6184C22.7336 33.4857 22.4809 33.2695 22.3037 32.9961C22.0997 32.6692 21.9964 32.2895 22.0065 31.9044V22.9806H23.7588Z" fill="white"/>
<path d="M44.7824 27.2121C45.103 27.3666 45.3899 27.5827 45.6269 27.8481C45.8638 28.1134 46.0462 28.4228 46.1634 28.7586C46.2807 29.0944 46.3306 29.4499 46.3104 29.805C46.2901 30.1601 46.2 30.5077 46.0453 30.8279L47.7517 31.6467C48.2136 30.6841 48.3263 29.5909 48.0704 28.5543C47.8145 27.5178 47.206 26.6024 46.3491 25.9648C45.4922 25.3273 44.4402 25.0072 43.3731 25.0595C42.3061 25.1118 41.2904 25.5331 40.5 26.2514L41.776 27.651C42.1757 27.2857 42.6758 27.0486 43.2118 26.9703C43.7478 26.8921 44.2949 26.9763 44.7824 27.2121Z" fill="#C7D540"/>
<path d="M42.4329 32.0965C41.7852 31.7848 41.2878 31.229 41.0497 30.551C40.8117 29.8731 40.8527 29.1285 41.1635 28.4807L39.4571 27.6597C38.9997 28.6211 38.89 29.7112 39.1466 30.7444C39.4032 31.7776 40.0101 32.6899 40.8642 33.3261C41.7183 33.9623 42.7666 34.283 43.8306 34.2336C44.8947 34.1842 45.9087 33.7677 46.7001 33.0551L45.4241 31.6576C45.0254 32.0193 44.5281 32.2542 43.9954 32.3323C43.4627 32.4105 42.9188 32.3284 42.4329 32.0965ZM20.2626 32.2253V29.6532C20.2626 28.7463 19.9935 27.8598 19.4893 27.1058C18.9851 26.3517 18.2685 25.764 17.4301 25.417C16.5917 25.0699 15.6692 24.9791 14.7791 25.1561C13.8891 25.333 13.0715 25.7697 12.4298 26.411C11.7881 27.0522 11.3511 27.8692 11.1741 28.7587C10.9971 29.6481 11.0879 30.5701 11.4352 31.4079C11.7825 32.2458 12.3706 32.9619 13.1251 33.4657C13.8797 33.9696 14.7668 34.2385 15.6743 34.2385C16.3856 34.2386 17.0872 34.0734 17.7237 33.7559L16.9852 32.031C16.5717 32.2595 16.1057 32.3761 15.6333 32.3694C15.1609 32.3626 14.6984 32.2327 14.2916 31.9925C13.8848 31.7523 13.5478 31.4102 13.314 30.9999C13.0802 30.5896 12.9576 30.1254 12.9584 29.6532C12.9559 29.2097 13.0633 28.7724 13.2709 28.3803C13.4536 28.0381 13.7074 27.7389 14.0152 27.5028C14.3231 27.2667 14.6779 27.0991 15.0559 27.0112C15.2564 26.9638 15.4617 26.9396 15.6677 26.9392C16.3888 26.9386 17.0806 27.2242 17.5911 27.7331C18.1015 28.242 18.389 28.9326 18.3901 29.6532V32.2035C18.3793 32.5884 18.4818 32.9681 18.6851 33.2952C18.8683 33.5752 19.1296 33.7953 19.4367 33.9284L20.2975 34.2691L21.0273 32.5223L20.2626 32.2253Z" fill="white"/>
</svg>
