<svg width="60" height="60" viewBox="0 0 60 60" fill="none" xmlns="http://www.w3.org/2000/svg">
<rect width="60" height="60" fill="#004A35"/>
<g clip-path="url(#clip0_43_10)">
<path d="M19.5527 35.2933V41.5977L14.3661 35.2933H13.0042V43.8982H14.4143V37.5939L19.6008 43.8982H21.0385V35.2933H19.5527ZM22.655 35.2933H24.4779V43.8982H22.655V35.2933Z" fill="white"/>
<path d="M47.9827 35.2933H43.1814L41.5649 43.8982H46.8271L47.0816 42.4324H44.2063L44.6397 40.1319H46.9715L47.2536 38.6661H44.9286L45.2863 36.7659H47.7007L47.9827 35.2933ZM52.5227 35.2933H49.4685L47.8245 43.8982H50.803C53.6783 43.8982 56.1409 41.9981 56.1409 38.9104C56.1409 36.7592 54.8821 35.2933 52.5227 35.2933ZM51.1125 42.4324H50.4935L51.5734 36.7592H52.2131C53.1624 36.7592 53.7264 37.8246 53.7264 38.9375C53.7058 41.2177 52.2131 42.4324 51.1125 42.4324ZM30.0224 42.4324C29.0731 42.4324 28.509 41.367 28.509 40.254C28.509 37.9739 30.0224 36.7592 31.1023 36.7592H34.0533L34.3353 35.2933H31.4119C28.5366 35.2933 26.074 37.1935 26.074 40.2812C26.074 42.4053 27.3328 43.8982 29.6922 43.8982H32.7463L33.0284 42.4324H30.0224ZM39.4875 40.0776C40.3061 39.6704 41.3379 38.9918 41.3379 37.4921C41.3379 36.5827 40.7188 35.3137 38.8753 35.3137H35.3603L33.7162 43.9254H36.0756L36.6947 40.6612H37.362L38.2631 43.9254H40.8564L39.4875 40.0776ZM37.6921 39.1683H36.9768L37.4651 36.7388H38.0842C38.6001 36.7388 39.006 37.2478 39.006 37.7499C38.9991 38.5575 38.3319 39.1683 37.6921 39.1683Z" fill="#B9A557"/>
<path d="M9.5924 35.2933V40.003C9.54425 41.9302 9.17968 43.0432 7.72139 43.0432H7.69387C6.22871 43.0432 5.8435 41.9302 5.82286 40.003V35.2933H4V40.5594C4 42.4324 4.69475 43.5453 6.31125 43.8982C6.31125 43.8982 6.77213 44 7.57006 44H7.82457C8.6225 44 9.00771 43.8982 9.00771 43.8982C10.6999 43.5725 11.3946 42.4053 11.3946 40.5594V35.2933H9.5924Z" fill="white"/>
</g>
<path d="M40.8484 25.3398L35.5546 16.372L35.524 16.3016C35.371 16.1106 35.1772 16 34.9528 16H28.027C27.874 16.0402 27.7618 16.1508 27.6088 16.3016L19.1224 25.2694C19.1224 25.2694 19.0816 25.2694 19.0816 25.3097L19.0408 25.3499C19 25.3901 19 25.4605 19 25.5409C19 25.7319 19.153 25.8425 19.306 25.8827H23.335C23.4064 25.8827 23.4472 25.9229 23.4472 25.9933C23.4472 26.0335 23.4472 26.0335 23.4064 26.0637L19.3366 30.3365L19.2958 30.3767C19.255 30.4169 19.255 30.4471 19.2244 30.4873V30.5576C19.2244 30.628 19.2652 30.7084 19.3366 30.7788C19.3774 30.819 19.4488 30.819 19.5304 30.8492H22.3048C22.4578 30.8492 22.6516 30.7788 22.7638 30.6582L27.0682 26.124C27.109 26.0838 27.109 26.0838 27.109 26.0536C27.109 25.9832 27.0682 25.943 26.9968 25.943H24.6712C24.5998 25.943 24.559 25.8727 24.559 25.8324C24.559 25.7922 24.559 25.7922 24.5998 25.7621L29.1286 20.9966L29.1694 20.9564C29.2408 20.8861 29.3224 20.8458 29.3938 20.8458C29.506 20.8458 29.5876 20.8861 29.659 20.9966L32.209 25.3499L32.4742 25.8023V25.8727C32.4742 25.943 32.4334 25.9832 32.362 25.9832H30.0058C29.9344 25.9832 29.8528 26.0536 29.8528 26.134C29.8528 26.1743 29.8528 26.2044 29.8936 26.2446L32.4436 30.5979V30.6381C32.5558 30.8291 32.7496 30.9397 32.9332 30.9397H38.2984C38.3698 30.9397 38.4106 30.9397 38.4922 30.8995C38.6452 30.8291 38.7166 30.7084 38.7166 30.5576C38.7166 30.5174 38.7166 30.4471 38.6758 30.4068L38.635 30.3365L36.1666 26.134V26.0938C36.1666 26.0235 36.2074 25.9832 36.2788 25.9832H40.6954C40.6954 25.9832 40.7362 25.9832 40.7362 25.943L40.777 25.9028C40.777 25.9028 40.777 25.8626 40.8178 25.8626C40.8178 25.8626 40.8178 25.8224 40.8586 25.8224C40.8586 25.8224 40.8586 25.7822 40.8994 25.7822V25.752C40.9198 25.6012 40.9198 25.4906 40.8484 25.3398ZM32.668 20.5744H26.242C26.1706 20.5744 26.1298 20.504 26.1298 20.4638C26.1298 20.4236 26.1298 20.3934 26.1706 20.3934L29.9752 16.382C30.016 16.3418 30.0466 16.3418 30.0874 16.3117C30.1282 16.2714 30.1996 16.2413 30.2812 16.2413H30.322C30.3934 16.2413 30.5158 16.3117 30.5464 16.3921L32.8516 20.3532C32.8516 20.3934 32.8924 20.3934 32.8924 20.4236C32.821 20.504 32.7394 20.5744 32.668 20.5744Z" fill="#B9A557"/>
<defs>
<clipPath id="clip0_43_10">
<rect width="53" height="9" fill="white" transform="translate(4 35)"/>
</clipPath>
</defs>
</svg>
