<svg width="60" height="60" viewBox="0 0 60 60" fill="none" xmlns="http://www.w3.org/2000/svg">
<rect width="60" height="60" fill="#3DAE2B"/>
<path d="M35.3861 22.7118C35.3766 24.2749 34.9618 25.0634 34.4472 25.1222C34.1099 25.1608 33.7203 24.8887 33.3688 24.3213C32.2129 22.4675 30.9477 20.7003 29.6033 18.9656C29.6033 18.9625 29.6049 18.9578 29.6065 18.9547C30.1275 16.2181 30.962 13.4274 32.3902 11C34.1764 14.5128 35.4083 18.8032 35.3861 22.7118ZM28.6834 22.6206C29.9454 23.7245 30.2906 24.6058 30.0087 25.0866C29.825 25.402 29.3642 25.5505 28.6881 25.4732C26.4253 25.2134 24.1689 25.1114 21.8856 25.0959C21.884 25.0928 21.8808 25.0897 21.8776 25.0866C19.7225 22.5819 17.7717 19.7603 16.5192 16.7129C20.7914 17.7008 25.4151 19.7649 28.6834 22.6221M24.3748 28.335C26.0611 27.9871 26.9827 28.2732 27.1901 28.8174C27.3263 29.1745 27.1569 29.6507 26.6803 30.161C25.1016 31.8431 23.6543 33.6103 22.2656 35.4502H22.2529C18.8532 35.696 15.3174 35.5584 12 34.7514C15.3807 31.8277 19.9616 29.2457 24.3763 28.3365M26.3034 35.3822C27.0413 33.85 27.8283 33.2733 28.3698 33.4341C28.7261 33.5392 28.9874 33.9598 29.0824 34.6354C29.3864 36.7675 29.825 38.8594 30.3602 40.9528C30.3587 40.9559 30.3555 40.959 30.3523 40.9621C28.5028 43.5256 26.5188 45.9931 24.0296 48C23.735 43.858 24.5046 39.1191 26.3034 35.3822ZM32.6895 37.8962C32.034 36.4938 32.083 35.543 32.5264 35.2152C32.8178 35.0003 33.2833 35.0405 33.8249 35.3528C35.478 36.3052 37.1818 37.1958 38.9679 37.9023C38.9679 37.9054 38.9679 37.9101 38.9695 37.9132C39.6124 40.5338 39.9861 43.2844 39.8214 45.9808C36.8477 44.0791 34.1495 41.0178 32.6895 37.8962ZM38.314 34.4421C36.9538 34.1484 36.303 33.5531 36.3457 33.012C36.3726 32.6564 36.6893 32.3147 37.2467 32.0735C38.9569 31.3329 40.6448 30.5181 42.2346 29.5425C42.2378 29.5441 42.2409 29.5456 42.2425 29.5472C44.3485 30.597 46.3722 31.9297 48 33.6165C45.0405 34.7421 41.378 35.1039 38.314 34.4421ZM39.4287 27.9268C38.352 28.8468 37.5222 29.0014 37.1596 28.6288C36.9221 28.3845 36.8746 27.9114 37.0535 27.2991C37.6252 25.3587 38.0685 23.3983 38.4375 21.4069C38.4406 21.4069 38.4438 21.4053 38.447 21.4038C40.6179 20.4112 42.7967 19.5021 45.2068 19.2562C44.0683 22.432 42.005 25.7283 39.4287 27.9284" fill="#D7E6C9"/>
<path d="M32.3237 11.1768C30.9147 13.5943 30.0905 16.3754 29.576 19.1026C29.576 19.1057 29.5745 19.1103 29.5729 19.1134C29.2195 18.6604 28.7503 18.115 28.3437 17.6173C26.8049 15.7283 25.1034 13.9625 23.3817 12.2276C26.2075 11.1105 29.3102 10.7438 32.3237 11.1768ZM12 25.973C14.6335 25.6556 17.2795 25.3659 19.9005 25.2781C20.5777 25.255 21.3455 25.2211 21.9523 25.2211C21.9492 25.218 21.9476 25.2134 21.9445 25.2118C19.8161 22.7157 17.8894 19.9038 16.6524 16.8685C14.3035 19.4246 12.7006 22.5986 12 25.9745M17.1888 43.7167C18.4274 41.4918 19.7332 39.29 21.161 37.213C21.5394 36.6614 21.9664 36.0281 22.3245 35.5397C22.3198 35.5397 22.3167 35.5397 22.312 35.5397C18.956 35.7847 15.4639 35.6491 12.1877 34.8433C13.0259 38.1714 14.743 41.2699 17.1888 43.7167ZM32.9962 48.7365C32.1986 46.7566 31.4339 44.7644 30.8255 42.7537C30.6566 42.1959 30.458 41.5472 30.3189 41.0218C30.3173 41.0249 30.3142 41.028 30.3126 41.0311C28.486 43.5841 26.5265 46.0432 24.0682 48.0447C27.0364 48.9014 29.9185 49.3035 32.9962 48.7365ZM45.3177 40.0866C43.6053 39.6598 41.8991 39.1744 40.2618 38.5381C39.7957 38.3563 39.2531 38.1652 38.8215 37.9834C38.8215 37.9865 38.8215 37.9911 38.823 37.9942C39.458 40.6058 39.827 43.3453 39.6644 46.034C41.9711 44.4994 43.9055 42.4501 45.3177 40.0881M47.6134 25.7002C46.2388 26.8142 44.8251 27.8928 43.3316 28.8357C42.9141 29.0992 42.4402 29.4182 42.0446 29.6539C42.0477 29.6539 42.0492 29.657 42.0524 29.6585C44.1323 30.7047 46.1309 32.0313 47.7385 33.7123C48.1201 30.9343 48.0888 28.4644 47.6134 25.7002ZM39.1139 13.639C38.9888 15.7206 38.8356 17.8068 38.5494 19.8422C38.4712 20.3938 38.3836 21.0378 38.296 21.5463C38.2992 21.5463 38.3023 21.5432 38.3054 21.5432C40.4494 20.554 42.6013 19.648 44.9815 19.4031C43.4864 17.0842 41.4831 15.0935 39.1155 13.6405" fill="white"/>
</svg>
