<svg width="60" height="60" viewBox="0 0 60 60" fill="none" xmlns="http://www.w3.org/2000/svg">
<rect width="60" height="60" fill="#00A857"/>
<path fill-rule="evenodd" clip-rule="evenodd" d="M49.4963 24.0502C50.3269 24.0502 50.9999 24.7067 50.9999 25.5162V41.2766C50.9999 41.8002 50.7134 42.2839 50.2483 42.5462L30.249 53.8039C30.0167 53.9349 29.7567 54 29.4973 54C29.2379 54 28.9787 53.935 28.7467 53.8044L8.75308 42.5722C8.28743 42.3104 8 41.8264 8 41.302V25.5491C8 24.7395 8.67359 24.0831 9.50418 24.0831C10.3345 24.0831 11.0072 24.7395 11.0072 25.5491V40.455L29.4964 50.8413L47.9927 40.4299V25.5162C47.9927 24.7067 48.6657 24.0502 49.4963 24.0502ZM28.7499 6.19704C29.2153 5.93446 29.7893 5.93446 30.2547 6.19621L50.2483 17.4505C50.7134 17.7126 51 18.1966 51 18.7201C51 19.2439 50.7134 19.728 50.2483 19.99L30.2493 31.2477C30.0167 31.3784 29.7568 31.4438 29.4971 31.4438C29.2379 31.4438 28.9791 31.3784 28.7468 31.2482L8.75313 20.0165C8.28749 19.7547 8.00091 19.271 8.00006 18.7474C8.00006 18.2237 8.28607 17.7393 8.75116 17.477L28.7499 6.19704ZM29.5036 9.15904L12.5115 18.7435L29.4965 28.285L46.4892 18.7201L29.5036 9.15904Z" fill="white"/>
</svg>
