<svg width="60" height="60" viewBox="0 0 60 60" fill="none" xmlns="http://www.w3.org/2000/svg">
<rect width="60" height="60" fill="black"/>
<mask id="mask0_42_205" style="mask-type:luminance" maskUnits="userSpaceOnUse" x="7" y="9" width="47" height="43">
<path d="M54 9H7V51.5719H54V9Z" fill="white"/>
</mask>
<g mask="url(#mask0_42_205)">
<path d="M41.2329 41.8847H46.5561C48.5469 41.8847 49.9318 40.9724 49.9318 39.1044C49.9318 37.2365 48.5469 36.3243 46.5561 36.3243H41.2329V41.8847ZM41.2329 51.5719H48.3306C52.0957 51.5719 54.0432 49.6171 54.0432 45.8378V41.8847H53.9135C52.8314 45.1862 50.0185 46.1853 46.686 46.1853H41.406C41.2763 46.1853 41.2329 46.2287 41.2329 46.3591V51.5719ZM31.2357 39.1044L36.6888 44.4042V33.8047L31.2357 39.1044ZM12.7127 51.5719H36.6888V50.3556C36.6888 48.2271 37.4245 47.0107 39.1123 46.3591V46.2287H32.4043C32.0581 46.2287 31.9282 46.1853 31.6686 45.9247L28.163 42.2756L24.5276 45.9681C24.3544 46.1419 24.2247 46.2287 23.8785 46.2287H18.4687C18.1657 46.2287 18.1657 46.0549 18.3389 45.8812L25.2634 39.1479L18.209 32.2842C18.0359 32.1104 18.0792 31.9367 18.3821 31.9367H23.8352C24.1381 31.9367 24.268 31.9802 24.4411 32.1974L28.2495 36.0201L31.8417 32.1974C32.0148 32.0236 32.1445 31.9367 32.4043 31.9367H46.6428C49.9318 31.9367 52.8314 33.0227 53.9135 36.3243H54.0432V14.7342C54.0432 10.9548 52.0957 9 48.3306 9H12.7127C8.94751 9 7 10.9548 7 14.7342V45.8812C7 49.6171 8.94751 51.5719 12.7127 51.5719Z" fill="white"/>
</g>
</svg>
