<svg width="61" height="60" viewBox="0 0 61 60" fill="none" xmlns="http://www.w3.org/2000/svg">
<rect width="60" height="60" transform="translate(0.5)" fill="#00A868"/>
<path d="M18.3351 17.663C18.0715 17.3997 17.714 17.2517 17.3414 17.2517C16.9687 17.2517 16.6113 17.3997 16.3476 17.663L8.24749 26.5934C7.767 27.1114 7.5 27.7918 7.5 28.4984C7.5 29.2049 7.767 29.8853 8.24749 30.4033V30.4089L16.3495 39.3393C16.5465 39.5353 16.7971 39.6686 17.0698 39.7223C17.3424 39.7759 17.6249 39.7476 17.8814 39.6409C18.138 39.5342 18.3572 39.3538 18.5114 39.1226C18.6656 38.8914 18.7478 38.6197 18.7476 38.3419V18.6549C18.7473 18.282 18.5989 17.9246 18.3351 17.6611V17.663ZM29.9978 49.6535C29.9983 49.8369 30.0361 50.0184 30.1091 50.1867C30.182 50.3551 30.2885 50.5068 30.422 50.6326C30.5556 50.7584 30.7134 50.8557 30.8857 50.9185C31.0581 50.9813 31.2415 51.0083 31.4247 50.9978C43.1867 50.2553 52.5 40.4681 52.5 28.5002C52.4981 16.5324 43.183 6.74139 31.4228 6.00266C31.2395 5.9911 31.0557 6.01733 30.8829 6.07974C30.7102 6.14216 30.5521 6.23941 30.4184 6.36547C30.2848 6.49152 30.1785 6.6437 30.1062 6.81254C30.0338 6.98139 29.9969 7.16331 29.9978 7.347V15.788C30.001 16.166 30.1426 16.5297 30.3959 16.8102C30.6492 17.0908 30.9965 17.2688 31.3722 17.3105C34.0962 17.6503 36.6018 18.9747 38.4167 21.0342C40.234 23.0953 41.2368 25.7487 41.2368 28.4965C41.2368 31.2443 40.234 33.8977 38.4167 35.9588C36.6018 38.0182 34.0962 39.3427 31.3722 39.6825C30.9955 39.723 30.647 39.9008 30.3932 40.182C30.1393 40.4632 29.9979 40.828 29.9959 41.2068V49.6535H29.9978Z" fill="white"/>
</svg>
