<svg width="60" height="60" viewBox="0 0 60 60" fill="none" xmlns="http://www.w3.org/2000/svg">
<rect width="60" height="60" fill="#EA1D2C"/>
<path fill-rule="evenodd" clip-rule="evenodd" d="M7.19528 20.4932H9.02198L9.31749 19H7.49019L7.19468 20.4926L7.19528 20.4932ZM6 26.4636H7.83997L8.86036 21.2995H7.03427L6 26.4642V26.4636ZM10.4048 27.917H8.56546L9.67993 22.335H9.04852L9.24994 21.2995H9.89463C10.2571 19.901 11.2781 19 12.755 19C13.1982 19 13.6548 19.0808 14.0576 19.2153L13.8429 20.3044C13.4666 20.1296 13.077 20.0891 12.6609 20.0891C11.9758 20.0891 11.8287 20.6005 11.7479 21.0444L11.7075 21.2862H13.077L12.8623 22.3217H11.5193L10.4048 27.917ZM14.3797 26.5848C16.5555 26.5848 18.0596 24.5675 18.0596 22.9133C18.0596 21.7168 16.9451 21.1922 15.8837 21.1922C13.507 21.1922 12.2044 23.3711 12.2044 24.8637C12.2044 26.0469 13.3321 26.5848 14.3797 26.5848ZM23.8617 22.9133C23.8617 24.5675 22.3577 26.5848 20.1818 26.5848C19.1343 26.5848 18.0065 26.0469 18.0065 24.8637C18.0065 23.3711 19.3092 21.1922 21.6859 21.1922C22.7473 21.1922 23.8617 21.7168 23.8617 22.9133ZM26.8288 26.4642H28.6561L30.1729 19H28.3335L27.8498 21.2995C27.6073 21.2455 27.3595 21.2186 27.1111 21.2193C25.3115 21.2193 23.6736 23.5592 23.6736 25.2267C23.6736 25.913 24.1168 26.5854 24.8556 26.5854C25.9164 26.5854 26.6407 26.0607 26.9501 25.5632H27.0574L26.8288 26.4642ZM16.0857 31.9913C18.0337 32.1126 19.8326 31.5209 21.1757 30.351L21.7263 31.9111L22.5187 27.9164L18.8255 27.9031L20.0745 28.8578C18.9732 29.9475 16.9457 30.714 15.2939 30.5253C13.6017 30.3371 12.2454 29.1804 11.6948 27.9164H11.5742C11.9228 29.8933 13.6282 31.8436 16.0857 31.9913Z" fill="white"/>
<path fill-rule="evenodd" clip-rule="evenodd" d="M35.0933 41.8698C35.188 41.8698 35.2351 41.8227 35.2351 41.7292V36.8582C35.2351 36.7642 35.188 36.7171 35.0933 36.7171H33.9909C33.8968 36.7171 33.8498 36.7642 33.8498 36.8582V41.728C33.8498 41.8221 33.8968 41.8692 33.9909 41.8692H35.0933V41.8698ZM35.8924 35.0207C35.8915 34.9914 35.8809 34.9632 35.8623 34.9405L35.3665 34.1372C35.3394 34.0968 35.3062 34.0769 35.2652 34.0769C35.2292 34.0756 35.1939 34.0862 35.1645 34.107L33.5459 35.3222C33.4982 35.3693 33.4747 35.4061 33.4747 35.4326C33.4747 35.4525 33.4849 35.4796 33.5048 35.5128L33.8486 36.0556C33.8603 36.0745 33.8767 36.0901 33.8963 36.1007C33.9159 36.1113 33.9379 36.1165 33.9602 36.1159C33.9885 36.1171 34.0166 36.11 34.041 36.0954L35.811 35.1311C35.8653 35.0979 35.8924 35.0611 35.8924 35.0207ZM31.5039 41.7292C31.5039 41.8227 31.4568 41.8698 31.3621 41.8698H30.2706C30.1759 41.8698 30.1283 41.8227 30.1283 41.7292V37.9432H29.2285C29.1338 37.9432 29.0868 37.8961 29.0868 37.8027V36.8589C29.0868 36.7648 29.1338 36.7183 29.2285 36.7183H30.1283V36.567C30.1283 35.9778 30.3339 35.4857 30.7452 35.0906C31.1565 34.689 31.8205 34.4315 32.7377 34.3175L32.8994 34.3073C32.9398 34.3073 32.9669 34.3175 32.9802 34.3374C33.0007 34.3573 33.0139 34.3941 33.0206 34.4478L33.1116 35.3819V35.4018C33.1116 35.4754 33.0676 35.5188 32.9802 35.5327C32.5761 35.5791 32.2655 35.6497 32.0496 35.7438C31.8343 35.8306 31.689 35.941 31.6154 36.0749C31.5406 36.2087 31.5039 36.3794 31.5039 36.5875V36.7177H32.9199C33.0139 36.7177 33.061 36.7642 33.061 36.8582V37.8021C33.061 37.8955 33.0139 37.9426 32.9199 37.9426H31.5039V41.7286V41.7292ZM6.14112 41.8698C6.04704 41.8698 6 41.8227 6 41.7292V34.759C6 34.6655 6.04704 34.6184 6.14112 34.6184H8.80066C9.60998 34.6184 10.2299 34.7927 10.6617 35.1407C11.0935 35.4887 11.3088 35.9645 11.3088 36.567C11.3088 36.9083 11.2111 37.2092 11.0157 37.4704C10.8203 37.7315 10.5508 37.9323 10.207 38.0734C10.6382 38.2001 10.9717 38.4178 11.2081 38.726C11.4433 39.0335 11.5621 39.3984 11.5621 39.8205C11.5621 40.2354 11.4572 40.5967 11.2485 40.9049C11.0393 41.2124 10.7329 41.4506 10.3282 41.6177C9.93021 41.7853 9.44776 41.8692 8.88207 41.8692H6.14112V41.8698ZM8.80066 37.5819C9.11787 37.5819 9.36755 37.4975 9.54967 37.3305C9.73843 37.1634 9.83312 36.9559 9.83312 36.7081C9.83312 36.4536 9.74507 36.2528 9.56957 36.105C9.39468 35.9579 9.13838 35.8843 8.80126 35.8843H7.44496V37.5813H8.80006L8.80066 37.5819ZM8.88207 40.6045C9.26623 40.6045 9.55631 40.5273 9.7517 40.3735C9.95373 40.2125 10.055 39.9948 10.055 39.7204C10.055 39.446 9.95373 39.2319 9.7517 39.0782C9.55631 38.9171 9.26623 38.8369 8.88207 38.8369H7.44496V40.6039H8.88026L8.88207 40.6045ZM13.4533 41.6587C13.8514 41.886 14.3061 42 14.8181 42C15.3512 42 15.8029 41.8927 16.1738 41.6786C16.5322 41.4705 16.8234 41.1638 17.0127 40.7951C17.0398 40.7414 17.0097 40.6914 16.9222 40.6443L16.0924 40.2523C16.0182 40.2125 15.9543 40.2294 15.9006 40.303C15.6576 40.6576 15.3138 40.8355 14.8694 40.8355C14.5184 40.8355 14.2253 40.7282 13.9889 40.5141C13.7537 40.2994 13.6114 40.0015 13.5643 39.6203H16.9114C17.006 39.6203 17.0561 39.5763 17.0633 39.4894C17.0766 39.3025 17.0838 39.165 17.0838 39.0775C17.0838 38.5957 16.9855 38.1669 16.7901 37.7924C16.6024 37.4258 16.3149 37.1195 15.9609 36.9089C15.6105 36.6942 15.1992 36.5875 14.7276 36.5875C14.2283 36.5875 13.7832 36.7045 13.3924 36.9391C13.0098 37.1717 12.6985 37.5051 12.4927 37.9028C12.2834 38.311 12.1791 38.77 12.1791 39.2784C12.1791 39.8145 12.29 40.2897 12.5126 40.7046C12.7417 41.1129 13.0553 41.4307 13.4533 41.6587ZM15.4254 37.9432C15.6142 38.1102 15.7251 38.3514 15.7589 38.6663H13.5842C13.6584 38.3647 13.7929 38.1271 13.9883 37.9528C14.1909 37.7719 14.4333 37.6814 14.7168 37.6814C15.0002 37.6814 15.236 37.7689 15.4254 37.9432ZM19.3894 41.7286C19.3894 41.8227 19.3423 41.8698 19.2483 41.8698H18.1555C18.0614 41.8698 18.0144 41.8227 18.0144 41.7292V36.8582C18.0144 36.7642 18.0614 36.7171 18.1555 36.7171H19.1976C19.2917 36.7171 19.3387 36.7642 19.3387 36.8582V37.4004C19.6017 37.1188 19.8712 36.9149 20.148 36.7877C20.4315 36.6538 20.7342 36.5869 21.0581 36.5869C21.6449 36.5869 22.0966 36.7738 22.4132 37.1489C22.737 37.5174 22.8986 38.0234 22.8986 38.6656V41.7286C22.8986 41.8221 22.8516 41.8692 22.7569 41.8692H21.6654C21.5707 41.8692 21.523 41.8221 21.523 41.7286V38.7863C21.523 38.492 21.4561 38.2616 21.321 38.0939C21.1859 37.9263 20.9875 37.8425 20.724 37.8425C20.502 37.8425 20.2759 37.9028 20.0467 38.0234C19.8242 38.144 19.6053 38.3249 19.3894 38.5661V41.7292V41.7286ZM25.0926 41.6587C25.4906 41.886 25.946 42 26.458 42C26.9905 42 27.4422 41.8927 27.8131 41.6786C28.1718 41.4706 28.4631 41.1639 28.6525 40.7951C28.6797 40.7414 28.6489 40.6914 28.5615 40.6443L27.7323 40.2523C27.6581 40.2125 27.5935 40.2294 27.5399 40.303C27.2974 40.6576 26.9537 40.8355 26.5086 40.8355C26.1582 40.8355 25.8645 40.7282 25.6287 40.5141C25.3929 40.2994 25.2512 40.0015 25.2042 39.6203H28.5512C28.6459 39.6203 28.696 39.5763 28.7032 39.4894C28.7165 39.3025 28.7231 39.165 28.7231 39.0775C28.7231 38.5957 28.6254 38.1669 28.43 37.7924C28.2422 37.4258 27.9548 37.1196 27.6008 36.9089C27.2504 36.6942 26.8391 36.5875 26.3669 36.5875C25.8682 36.5875 25.4231 36.7045 25.0323 36.9391C24.6494 37.1716 24.3379 37.505 24.1319 37.9028C23.9233 38.311 23.8183 38.77 23.8183 39.2784C23.8183 39.8145 23.9299 40.2897 24.1524 40.7046C24.3816 41.1129 24.6946 41.4307 25.0926 41.6587ZM27.0647 37.9432C27.2534 38.1102 27.365 38.3514 27.3988 38.6663H25.2235C25.2977 38.3647 25.4327 38.1271 25.6281 37.9528C25.8302 37.7719 26.0732 37.6814 26.3561 37.6814C26.6395 37.6814 26.8759 37.7689 27.0647 37.9432ZM38.7763 42C38.2637 42 37.8084 41.886 37.4109 41.6587C37.0234 41.4285 36.708 41.0945 36.5003 40.6944C36.285 40.2795 36.1771 39.8109 36.1771 39.2892C36.1771 38.773 36.285 38.311 36.5003 37.9028C36.7101 37.5012 37.0291 37.1672 37.4206 36.9391C37.8186 36.7045 38.2703 36.5875 38.7763 36.5875C39.3088 36.5875 39.7466 36.7081 40.0904 36.9493C40.4347 37.1899 40.6971 37.5144 40.8792 37.9233C40.887 37.9424 40.8905 37.963 40.8895 37.9836C40.8895 38.03 40.8593 38.0704 40.7984 38.1042L39.8884 38.4751C39.8655 38.4839 39.8419 38.4908 39.8178 38.4956C39.7774 38.4956 39.74 38.4654 39.7062 38.4051C39.4976 38.03 39.187 37.8425 38.7763 37.8425C38.4187 37.8425 38.1286 37.9763 37.9061 38.2441C37.6835 38.5119 37.5726 38.8568 37.5726 39.279C37.5726 39.7204 37.6835 40.075 37.9061 40.3434C38.1286 40.6112 38.4187 40.745 38.7763 40.745C39.2208 40.745 39.5579 40.5508 39.787 40.1625C39.8274 40.0823 39.8884 40.0587 39.9692 40.0919L40.8695 40.4634C40.9166 40.4839 40.9467 40.5074 40.96 40.534C40.9739 40.5539 40.9739 40.581 40.96 40.6142C40.7804 41.0183 40.4936 41.3655 40.1308 41.6183C39.7671 41.8728 39.3154 42 38.7763 42ZM42.9827 41.8698C43.0768 41.8698 43.1244 41.8227 43.1244 41.7292V36.8589C43.1244 36.7648 43.0768 36.7177 42.9827 36.7177H41.8803C41.7862 36.7177 41.7386 36.7648 41.7386 36.8589V41.7292C41.7386 41.8227 41.7862 41.8698 41.8803 41.8698H42.9827ZM41.7995 35.6232C41.9611 35.7709 42.1704 35.8445 42.4267 35.8445C42.6824 35.8445 42.8886 35.7709 43.043 35.6232C43.1986 35.476 43.2758 35.2818 43.2758 35.0412C43.2758 34.8 43.1986 34.6094 43.043 34.4683C42.8886 34.3211 42.6824 34.2476 42.4267 34.2476C42.1704 34.2476 41.9611 34.3211 41.7995 34.4689C41.6445 34.6094 41.5667 34.7963 41.5667 35.0309C41.5667 35.2782 41.6445 35.476 41.7995 35.6232ZM46.6729 42C46.1609 42 45.7056 41.886 45.3081 41.6587C44.9154 41.4366 44.5956 41.1052 44.3879 40.7046C44.172 40.2897 44.064 39.8181 44.064 39.2886C44.064 38.7796 44.172 38.3213 44.3879 37.913C44.6009 37.508 44.923 37.1706 45.3178 36.9391C45.7158 36.7045 46.1675 36.5875 46.6729 36.5875C47.1855 36.5875 47.6372 36.7014 48.028 36.9288C48.426 37.1568 48.733 37.4776 48.9483 37.8931C49.1642 38.3014 49.2721 38.7664 49.2721 39.2886C49.2721 39.8042 49.1606 40.2698 48.938 40.6847C48.7287 41.0866 48.4095 41.4208 48.0177 41.6484C47.627 41.883 47.1789 42 46.6729 42ZM46.6729 40.745C47.0372 40.745 47.3272 40.6142 47.5425 40.353C47.7651 40.0919 47.8766 39.7403 47.8766 39.2989C47.8766 38.8635 47.7651 38.5119 47.5425 38.2441C47.32 37.9763 47.0305 37.8425 46.6729 37.8425C46.3159 37.8425 46.0222 37.9763 45.793 38.2441C45.5705 38.5052 45.4595 38.8502 45.4595 39.279C45.4595 39.7204 45.5705 40.075 45.793 40.3434C46.0222 40.6112 46.3159 40.745 46.6729 40.745ZM49.8794 40.9157C50.2841 41.6388 50.9746 42 51.9522 42C52.384 42 52.7579 41.9295 53.0751 41.789C53.3983 41.6484 53.6444 41.4542 53.8133 41.207C53.9882 40.9525 54.0762 40.6642 54.0762 40.3428C54.0762 39.9882 53.9815 39.7005 53.7928 39.4798C53.6151 39.2552 53.3864 39.0762 53.1258 38.9575C52.8628 38.8369 52.5426 38.7229 52.1651 38.6156C51.8611 38.542 51.6422 38.4721 51.5077 38.4045C51.3793 38.3315 51.3153 38.2278 51.3153 38.0939C51.3153 37.9667 51.3793 37.863 51.5077 37.7822C51.6422 37.7019 51.8141 37.6615 52.0233 37.6615C52.4545 37.6615 52.782 37.8226 53.0039 38.144C53.0311 38.191 53.0685 38.214 53.1155 38.214C53.1432 38.2107 53.1703 38.204 53.1963 38.194L53.9242 37.8226C53.9785 37.7894 54.0056 37.752 54.0056 37.7122C54.0007 37.6882 53.9938 37.6646 53.9851 37.6416C53.5871 36.9391 52.9231 36.5875 51.9926 36.5875C51.5952 36.5875 51.2412 36.6574 50.9312 36.7985C50.6212 36.9324 50.3818 37.123 50.2129 37.3709C50.0447 37.6121 49.9602 37.8829 49.9602 38.1838C49.9602 38.6596 50.1321 39.0209 50.4759 39.2687C50.8196 39.5099 51.2647 39.6969 51.8111 39.8308C52.1482 39.911 52.384 39.9948 52.5191 40.0823C52.6602 40.1625 52.7313 40.2758 52.7313 40.4236C52.7313 40.5708 52.6638 40.6877 52.5287 40.7752C52.4009 40.862 52.2121 40.9055 51.9624 40.9055C51.4975 40.9055 51.1302 40.7245 50.86 40.3627C50.8269 40.3096 50.7895 40.2831 50.7491 40.2831C50.72 40.2861 50.6922 40.2965 50.6682 40.3132L49.9397 40.7245C49.8861 40.7583 49.8589 40.7981 49.8589 40.8451C49.8589 40.8518 49.8656 40.8753 49.8794 40.9157Z" fill="white"/>
</svg>
