<svg width="60" height="60" viewBox="0 0 60 60" fill="none" xmlns="http://www.w3.org/2000/svg">
<rect width="60" height="60" fill="#02D72F"/>
<path d="M48.8836 48.259H16.9245C13.717 48.259 11.1162 45.6754 11.1162 42.4891V10.741H43.0741C46.2816 10.741 48.8824 13.3246 48.8824 16.5109V48.259H48.8836Z" fill="#00BE28"/>
<path d="M28.6717 39.4015H21.5767C20.2862 39.4015 19.544 38.8581 19.0741 37.6738L14.6172 26.2945H19.3861C20.6766 26.2945 21.4586 26.8577 21.8688 28.0618L23.843 33.849H24.625L29.062 21.7324H37.624C41.8459 21.7324 44.1919 23.7134 44.1919 27.2664C44.1919 29.1893 43.2346 30.7813 41.4742 31.752C41.7278 32.2571 42.0411 32.9944 42.5098 34.238C43.7804 37.5774 44.5424 38.6074 45.3443 39.4028H40.829C38.7963 39.4028 37.5643 38.5099 36.8221 36.587L34.0659 29.3832C34.3979 29.461 34.8081 29.4808 35.1997 29.4808C36.9004 29.4808 37.8391 28.8979 37.8391 27.8308C37.8391 26.8021 37.077 26.297 35.513 26.297H33.7141L28.6717 39.4015Z" fill="white"/>
</svg>
