<svg width="60" height="60" viewBox="0 0 60 60" fill="none" xmlns="http://www.w3.org/2000/svg">
<rect width="60" height="60" fill="#FF6200"/>
<path d="M26.869 6.03035C25.4872 6.0632 24.4735 6.11178 22.6152 6.22637C21.7557 6.27765 20.8174 6.35318 20.1567 6.41929C19.9909 6.43732 19.6439 6.47057 19.3875 6.49481C18.3106 6.60049 16.7117 6.80232 16.0391 6.91701C15.8971 6.94125 15.689 6.9745 15.5716 6.99253C15.4569 7.00776 15.2516 7.04372 15.1189 7.06806C14.9863 7.0923 14.763 7.13457 14.6214 7.15841C14.1233 7.24294 13.2759 7.41503 12.7963 7.52972C12.6633 7.56297 12.425 7.62007 12.2682 7.65653C12.1112 7.69249 11.9697 7.72574 11.9517 7.72885C11.0674 7.93979 10.1896 8.36549 9.51395 8.9175C8.85624 9.45158 8.26825 10.3144 7.97249 11.1712C7.92442 11.3039 7.87585 11.4397 7.86102 11.4729C7.80974 11.5876 7.5864 12.5528 7.42636 13.3436C7.40252 13.4762 7.36026 13.6722 7.33602 13.781C7.31168 13.8894 7.27893 14.0795 7.2577 14.2032C7.23937 14.3268 7.21544 14.4779 7.20021 14.535C7.15484 14.7072 6.97096 15.8837 6.85318 16.7375C6.73861 17.5642 6.66309 18.1648 6.59699 18.774C6.56374 19.0725 6.53049 19.3652 6.52458 19.4227C6.51557 19.4798 6.48822 19.7726 6.46118 20.0715C6.43695 20.37 6.40099 20.7351 6.38256 20.8861C6.31917 21.4409 6.16223 23.8578 6.08411 25.5625C6.02381 26.8263 5.98465 29.5328 6.00579 31.0082C6.02692 32.8484 6.07189 34.4929 6.11415 35.0661C6.12948 35.2981 6.15952 35.7873 6.17755 36.1523C6.19558 36.5173 6.21981 36.9848 6.23504 37.193C6.30434 38.2369 6.35873 38.9216 6.38567 39.1388C6.40099 39.2718 6.43695 39.6248 6.46118 39.9202C6.48542 40.216 6.52147 40.5689 6.5367 40.7047C6.55473 40.8405 6.58798 41.1331 6.61181 41.3565C6.68733 42.0714 6.74482 42.539 6.79299 42.85C6.81723 43.0159 6.85949 43.2995 6.88333 43.4834C6.97096 44.147 7.07342 44.7926 7.18499 45.3843C7.20923 45.5169 7.24839 45.7403 7.27573 45.882C7.32701 46.1836 7.44469 46.7842 7.52922 47.1641C7.81866 48.4949 7.94545 48.8927 8.28627 49.5477C8.37972 49.7285 8.5003 49.9398 8.55468 50.0153C8.60586 50.0908 8.68138 50.1992 8.72054 50.2567C8.8926 50.513 9.38445 51.0138 9.65597 51.2071C9.70094 51.24 9.78857 51.3033 9.84566 51.3488C9.90635 51.3969 9.96344 51.4332 9.97866 51.4332C9.99078 51.4332 10.0209 51.4544 10.0448 51.4787C10.1625 51.5933 10.9923 51.9885 11.348 52.0941C11.4145 52.1152 11.4959 52.1422 11.5291 52.1575C11.6078 52.1936 12.0509 52.3051 12.585 52.426C12.8174 52.4804 13.0557 52.5374 13.1129 52.5527C13.2517 52.5887 14.1264 52.7636 14.7872 52.8845C15.1671 52.9537 15.9065 53.0715 16.3708 53.138C16.5458 53.1619 16.7691 53.1951 16.8686 53.2132C17.2336 53.2766 18.7421 53.4519 19.6892 53.5422C20.03 53.5755 20.4494 53.6146 20.6242 53.6325C20.9079 53.6627 21.1974 53.6869 22.585 53.7864C22.7932 53.8016 23.267 53.8287 23.641 53.847C24.015 53.865 24.5369 53.8921 24.8025 53.9073C26.9503 54.0309 33.0922 54.0309 35.2098 53.9073C35.4754 53.8893 35.9973 53.865 36.3714 53.847C37.0138 53.8169 37.2493 53.8016 38.2567 53.7261C39.5477 53.6267 41.4456 53.4424 42.088 53.3521C42.2718 53.325 42.5887 53.2828 42.7968 53.2554C43.566 53.1561 44.6219 52.996 45.2252 52.8845C45.886 52.7636 46.7607 52.5887 46.8996 52.5527C46.9567 52.5374 47.195 52.4804 47.4274 52.426C47.9492 52.3082 48.4019 52.1936 48.4832 52.1575C48.5835 52.1214 48.684 52.0862 48.7849 52.0518C49.0322 51.9705 49.8529 51.5812 49.9221 51.5147C49.9433 51.4935 50.0036 51.4485 50.0548 51.418C50.2903 51.2705 50.3987 51.186 50.6131 50.9927C50.8545 50.7723 51.1894 50.4105 51.2707 50.2868C51.2977 50.2446 51.3702 50.1421 51.4303 50.0607C51.4937 49.9762 51.545 49.9007 51.545 49.8886C51.545 49.8764 51.5935 49.7919 51.6506 49.7015C51.7082 49.6111 51.7774 49.4781 51.8048 49.4057C51.8349 49.3365 51.8649 49.2609 51.8771 49.2461C51.9342 49.1706 52.1455 48.57 52.2359 48.2291C52.3779 47.7013 52.6431 46.4552 52.7397 45.8667C52.764 45.716 52.791 45.5744 52.8 45.5501C52.8274 45.4836 52.9933 44.4487 53.1439 43.3931C53.1771 43.1607 53.2104 42.9283 53.2194 42.8801C53.2437 42.7412 53.3521 41.8151 53.4006 41.3264C53.4244 41.085 53.4576 40.8072 53.4757 40.7078C53.4941 40.608 53.527 40.2825 53.5512 39.9836C53.5754 39.6851 53.6087 39.3169 53.6236 39.1689C53.6416 39.0183 53.669 38.6744 53.6869 38.3997C53.7049 38.125 53.7323 37.7874 53.7472 37.6454C53.7655 37.5037 53.7985 36.9817 53.8227 36.484C53.85 35.986 53.8802 35.3736 53.8982 35.1264C54.0339 32.9329 54.0339 27.1765 53.8982 24.9138C53.8829 24.6571 53.856 24.1536 53.8379 23.7975C53.8196 23.4414 53.7926 22.9707 53.7773 22.7564C53.7593 22.5392 53.7202 22.0052 53.6869 21.5649C53.6536 21.1244 53.6204 20.7108 53.6114 20.6447C53.6024 20.5781 53.5754 20.2855 53.5512 19.9959C53.527 19.7065 53.4999 19.4348 53.4909 19.3927C53.4819 19.3504 53.4486 19.0725 53.4154 18.774C53.3373 18.0528 53.2405 17.2566 53.2194 17.1632C53.2104 17.1209 53.1771 16.8795 53.1439 16.6318C52.996 15.5037 52.7218 13.9317 52.4863 12.8608C52.453 12.7097 52.399 12.4655 52.3658 12.3177C52.2812 11.9315 52.1815 11.5422 52.1486 11.4729C52.1334 11.4397 52.1064 11.3583 52.0852 11.2918C52.0187 11.0687 51.6838 10.3234 51.5994 10.2056C51.5872 10.1876 51.491 10.046 51.3881 9.8891C51.1741 9.56627 50.6252 8.99303 50.2962 8.75163C49.6448 8.27194 48.9206 7.946 47.9857 7.71672C47.8245 7.67733 47.6636 7.63703 47.5029 7.59583C47.3914 7.56297 47.1679 7.51449 46.6883 7.41503C46.5524 7.38653 46.4167 7.35731 46.2811 7.32738C45.6989 7.18575 43.8043 6.87784 42.5707 6.72099C42.323 6.69084 42.0789 6.65758 42.0277 6.64586C41.9369 6.62743 41.4996 6.58246 40.6099 6.49481C40.3622 6.47057 40.0215 6.43451 39.8556 6.41929C39.6898 6.40126 39.3909 6.37421 39.1921 6.35588C38.9929 6.34106 38.6671 6.31361 38.468 6.29879C37.7923 6.2413 35.916 6.13292 34.8781 6.08744C32.8719 5.9999 29.1675 5.97285 26.869 6.03035ZM13.5776 26.4163C13.5956 26.4311 13.6832 26.4586 13.7705 26.4796C13.9336 26.5188 14.1629 26.6245 14.3345 26.7391C14.4703 26.8295 14.7903 27.1734 14.8533 27.2943C14.8839 27.3546 14.9167 27.409 14.9257 27.418C14.9351 27.427 14.9621 27.4872 14.9863 27.5537C15.0075 27.6198 15.0344 27.6895 15.0497 27.7043C15.0888 27.7618 15.1342 28.1206 15.1342 28.3864C15.1342 28.6458 15.0947 28.9505 15.0435 29.0621C14.8808 29.4361 14.8021 29.5597 14.5971 29.7773C14.4069 29.9733 14.3287 30.0336 14.0693 30.1604C13.858 30.266 13.7071 30.3204 13.5866 30.3321C13.4899 30.3442 13.4054 30.3653 13.3964 30.3775C13.3754 30.4139 12.7208 30.4139 12.7208 30.3775C12.7208 30.3653 12.6452 30.3442 12.5486 30.3321C12.4551 30.3204 12.3378 30.293 12.2865 30.2719C12.2211 30.2424 12.1547 30.2153 12.0874 30.1904C12.0299 30.1694 11.9755 30.1451 11.9665 30.136C11.9575 30.124 11.9121 30.097 11.8608 30.0727C11.686 29.9854 11.324 29.5839 11.2185 29.3637C11.161 29.246 11.107 29.1313 11.0918 29.1075C10.9892 28.9021 10.9712 27.9669 11.0674 27.7497C11.0949 27.6922 11.1339 27.596 11.1551 27.5384C11.1762 27.4813 11.2004 27.4269 11.2094 27.418C11.2185 27.409 11.2545 27.3483 11.2878 27.2821C11.3453 27.1703 11.704 26.7841 11.7553 26.7841C11.7673 26.7841 11.7947 26.763 11.8159 26.736C11.873 26.6725 12.1656 26.5309 12.3437 26.4856C12.4281 26.4644 12.5216 26.4343 12.5549 26.419C12.5882 26.4042 12.6695 26.389 12.7357 26.38C12.9136 26.3619 13.5384 26.389 13.5776 26.4163ZM46.4469 28.519V30.0425H40.5947V28.0032L40.9206 27.9517C41.6416 27.8402 42.0911 27.7646 42.1181 27.7466C42.1361 27.7345 42.284 27.7106 42.4498 27.6895C42.6157 27.6684 42.7667 27.6409 42.7816 27.6288C42.7999 27.6171 42.9416 27.5898 43.0985 27.5686C43.2553 27.5506 43.4604 27.5142 43.5512 27.4903C43.6415 27.4693 43.8316 27.4359 43.9732 27.418C44.1153 27.3995 44.2569 27.3726 44.2901 27.3604C44.3234 27.3456 44.474 27.3182 44.6219 27.2971C44.7729 27.279 44.9415 27.252 44.999 27.2337C45.0561 27.2187 45.2736 27.1766 45.4818 27.1432C45.69 27.11 45.9615 27.0651 46.0851 27.0439C46.2087 27.0196 46.3414 27.0016 46.3805 26.9985L46.4469 26.9954V28.519ZM21.4689 29.8645V31.6718H24.4855V34.3571H21.4661L21.4779 37.1539C21.4873 40.1679 21.4809 40.0199 21.6442 40.3908C21.7678 40.6777 22.1175 40.9703 22.4192 41.0427C22.4705 41.0548 22.528 41.0788 22.5522 41.0971C22.6093 41.1422 23.8311 41.1422 23.8855 41.094C23.9094 41.076 24.0181 41.0517 24.1327 41.0396L24.335 41.0185V43.6646L24.2533 43.7007C24.1782 43.7338 23.8311 43.7882 23.3546 43.8454C22.6759 43.9241 21.4388 43.9331 21.3664 43.8574C21.3483 43.8426 21.3003 43.8305 21.2549 43.8305C21.1371 43.8305 20.6485 43.7398 20.6121 43.7127C20.5941 43.7007 20.5128 43.6704 20.4282 43.6525C20.3469 43.6314 20.2655 43.6039 20.2472 43.5922C20.2322 43.577 20.163 43.5499 20.0965 43.5288C20.03 43.5078 19.9697 43.4803 19.9607 43.4713C19.9517 43.4623 19.8973 43.429 19.8398 43.3958C19.5895 43.2632 19.5143 43.2151 19.3813 43.1031C19.3031 43.0398 19.2307 42.9858 19.2155 42.9858C19.1853 42.9826 18.9561 42.7322 18.7753 42.503C18.6365 42.3249 18.4311 41.9842 18.3618 41.8089C18.3375 41.7518 18.3106 41.6973 18.3016 41.6883C18.2895 41.6793 18.2593 41.5858 18.2292 41.477C18.2018 41.3686 18.1658 41.254 18.1506 41.2207C18.1357 41.1875 18.0993 41.0517 18.0754 40.9191C18.0499 40.793 18.0226 40.6673 17.9937 40.5419C17.9726 40.4515 17.9577 39.3892 17.9486 37.3801L17.9366 34.3571H16.1898V31.6718H17.9397V28.6305L18.1446 28.6094C18.2562 28.5976 18.3618 28.5765 18.377 28.5644C18.395 28.5522 18.543 28.5253 18.7088 28.5041C18.8747 28.483 19.0257 28.4525 19.0406 28.4408C19.0586 28.4286 19.2487 28.3953 19.4631 28.3683C19.6802 28.3378 19.8704 28.3049 19.8852 28.2928C19.9032 28.2807 20.003 28.2596 20.1114 28.2505C20.2531 28.2335 20.3941 28.2104 20.5339 28.1813C20.8567 28.1148 21.4208 28.0271 21.4478 28.0424C21.4599 28.0483 21.4689 28.8692 21.4689 29.8645ZM31.4693 31.385C31.8915 31.4092 32.3684 31.4636 32.4044 31.4907C32.4224 31.5027 32.4948 31.5239 32.5703 31.5329C32.7424 31.5603 33.1618 31.6839 33.4149 31.7864C33.6262 31.871 34.0968 32.1061 34.1691 32.1668C34.1935 32.1848 34.2475 32.2208 34.2897 32.2391C34.3319 32.2602 34.465 32.3655 34.5823 32.4685C34.7001 32.5741 34.8088 32.6645 34.8237 32.6703C34.8691 32.6915 35.4058 33.3433 35.4058 33.3793C35.4058 33.3883 35.4333 33.4369 35.4665 33.4819C35.5298 33.5726 35.7982 34.0946 35.7982 34.1278C35.7982 34.1395 35.8225 34.2061 35.8553 34.2754C35.8855 34.345 35.9218 34.4507 35.934 34.5077C35.9461 34.5652 35.9673 34.6255 35.979 34.6435C35.991 34.6588 36.0185 34.7551 36.0396 34.8548C36.0576 34.9542 36.0819 35.0572 36.0909 35.081C36.103 35.1052 36.1299 35.2347 36.1543 35.3678C36.1903 35.5669 36.1993 36.3181 36.2114 39.6428L36.2235 43.6795H32.9325L32.9295 43.3235C32.9262 43.1306 32.9172 42.85 32.9051 42.702L32.8871 42.4306L32.7996 42.5511C32.661 42.7354 32.2052 43.1696 32.0245 43.2902C31.629 43.5499 31.5237 43.6129 31.4149 43.6494C31.3484 43.6674 31.2612 43.7038 31.2189 43.7275C31.1736 43.7488 31.0621 43.7851 30.9714 43.8032C30.8809 43.8242 30.7906 43.8516 30.7754 43.8634C30.6216 43.978 28.721 43.9752 28.5731 43.8607C28.5583 43.8485 28.4495 43.8216 28.3317 43.8004C28.2172 43.7793 28.0813 43.746 28.0302 43.7217C27.9821 43.7007 27.8521 43.6462 27.7468 43.6039C27.6255 43.5512 27.5067 43.4928 27.3909 43.429C27.3107 43.3795 27.2292 43.3323 27.1463 43.2874C27.0196 43.2178 26.9774 43.1786 26.6335 42.8347C26.2806 42.4818 26.2352 42.4337 26.2352 42.4004C26.2352 42.3883 26.1961 42.3218 26.1511 42.2525C26.1025 42.1833 26.0333 42.0565 25.9969 41.9747C25.9609 41.8906 25.9124 41.7908 25.8913 41.7486C25.8675 41.7063 25.8342 41.5979 25.8131 41.5072C25.7919 41.4167 25.765 41.3264 25.7528 41.3112C25.7195 41.2689 25.662 40.8404 25.662 40.6534C25.662 40.5662 25.6472 40.4785 25.6292 40.4606C25.5928 40.4241 25.6018 40.3036 25.6953 39.5762C25.7133 39.4346 25.7407 39.3047 25.7528 39.2898C25.7649 39.2718 25.7918 39.1932 25.8099 39.1118C25.849 38.9549 25.9309 38.7498 26.0153 38.5957C26.0423 38.5445 26.0784 38.4752 26.0967 38.4388C26.1147 38.3998 26.139 38.3696 26.1538 38.3696C26.1659 38.3696 26.1749 38.3516 26.1749 38.3304C26.1749 38.2972 26.5067 37.8657 26.5642 37.8265C26.5762 37.8175 26.5975 37.7875 26.6065 37.7572C26.6185 37.7239 26.6546 37.6939 26.6878 37.6849C26.7211 37.6759 26.7481 37.6574 26.7481 37.6453C26.7481 37.6153 27.2551 37.2169 27.4268 37.1174C27.5504 37.042 27.8283 36.9004 28.2324 36.7071C28.2899 36.677 28.8536 36.4961 29.1013 36.4266C29.1916 36.3996 29.3697 36.3631 29.4933 36.3452C29.6169 36.324 29.7347 36.2998 29.7499 36.2881C29.7679 36.2759 29.9487 36.2485 30.1572 36.2305C30.3653 36.2125 30.6216 36.1824 30.7303 36.1671C31.1587 36.1038 32.6637 36.1159 32.8238 36.1824C32.8782 36.2062 32.8809 36.1944 32.8598 35.9378C32.848 35.79 32.8269 35.6632 32.8148 35.6541C32.7996 35.6451 32.7815 35.588 32.7694 35.5274C32.7483 35.4158 32.6336 35.1717 32.5252 35.0055C32.4556 34.9002 32.163 34.5981 32.1297 34.5981C32.118 34.5981 32.0667 34.568 32.0152 34.5289C31.8825 34.4322 31.6685 34.336 31.5386 34.3117C31.4752 34.2996 31.424 34.2785 31.424 34.2663C31.424 34.1337 29.4753 34.1126 28.8901 34.2424C28.8146 34.2573 28.6397 34.2905 28.498 34.3148C28.356 34.3387 28.2143 34.3719 28.1811 34.3872C28.1478 34.4021 28.0395 34.4295 27.9397 34.4474C27.8404 34.4655 27.7316 34.4928 27.6984 34.5077C27.6651 34.523 27.5446 34.5562 27.4299 34.5833C27.3154 34.6103 27.2066 34.6404 27.1886 34.6556C27.1705 34.6678 27.0892 34.6979 27.0047 34.719C26.9234 34.7401 26.8388 34.7703 26.8236 34.7824C26.8056 34.7945 26.7242 34.8215 26.6424 34.8427C26.5583 34.8607 26.4405 34.9029 26.3803 34.933C26.3169 34.9663 26.2595 34.9905 26.2504 34.9905C26.2414 34.9905 26.2352 34.3598 26.2352 33.5906C26.2352 32.5013 26.2445 32.1847 26.2747 32.1605C26.2958 32.1425 26.3803 32.1124 26.4617 32.0913C26.5462 32.0732 26.6276 32.0459 26.6424 32.0338C26.6609 32.0217 26.7602 31.9857 26.869 31.9582C26.9774 31.9281 27.0798 31.8951 27.0951 31.8831C27.1132 31.8678 27.2066 31.8436 27.3033 31.8228C27.403 31.8018 27.5056 31.7743 27.5294 31.7594C27.5567 31.7474 27.6803 31.714 27.804 31.6871C27.9001 31.6684 27.9957 31.6472 28.0908 31.6237C28.1236 31.6143 28.2927 31.5873 28.4675 31.563C28.6428 31.5392 28.8267 31.5059 28.8748 31.4907C29.05 31.4366 30.6305 31.3369 30.9866 31.3581C31.0859 31.3639 31.3035 31.3761 31.4693 31.3851V31.385ZM14.8322 37.6759V43.6795H11.303V31.6718H14.8322V37.6759ZM41.4996 35.4127C41.4996 38.985 41.5148 39.6761 41.5872 39.7726C41.602 39.7875 41.6204 39.8477 41.6326 39.9053C41.6748 40.1314 41.8708 40.4606 42.0938 40.6836C42.2116 40.8044 42.3442 40.91 42.3864 40.9218C42.4318 40.9312 42.465 40.9493 42.465 40.9614C42.465 40.9731 42.5707 41.0154 42.7002 41.0575C42.8935 41.1182 42.9959 41.13 43.2976 41.13C43.5089 41.13 43.6927 41.1151 43.735 41.0971C43.774 41.0761 43.8676 41.0458 43.9431 41.0247C44.0186 41.0036 44.1544 40.9402 44.2448 40.8795C44.4137 40.7712 44.7275 40.4817 44.7275 40.4331C44.7275 40.4183 44.7698 40.3518 44.8179 40.2884C44.8691 40.2219 44.9087 40.1558 44.9087 40.1377C44.9087 40.1193 44.9357 40.056 44.9658 39.9957C44.999 39.9354 45.0351 39.8329 45.0472 39.7695C45.0562 39.703 45.0772 39.6369 45.0926 39.6217C45.1681 39.525 45.1802 38.9158 45.1802 35.3767V31.6718H48.7094V43.6796H47.0382C45.7322 43.6796 45.3579 43.6705 45.3399 43.6404C45.3277 43.6224 45.3129 43.3356 45.3067 43.0068C45.3007 42.681 45.2855 42.4126 45.2737 42.4126C45.2617 42.4126 45.2253 42.4486 45.1893 42.4939C45.0202 42.7233 44.7546 42.9827 44.3384 43.3266C44.2781 43.3747 44.1545 43.4412 43.883 43.5739C43.7593 43.6341 43.6236 43.7037 43.5813 43.7248C43.5391 43.746 43.4245 43.7792 43.3246 43.8004C43.2253 43.8215 43.1377 43.8484 43.1287 43.8607C43.0986 43.9057 42.5646 43.951 42.0368 43.951C41.518 43.951 41.0955 43.9149 40.9719 43.8634C40.9386 43.8485 40.824 43.8122 40.7153 43.7851C40.6069 43.7581 40.5071 43.7217 40.4891 43.7096C40.4743 43.6975 40.4019 43.6673 40.3323 43.6462C40.2599 43.6282 40.2028 43.6012 40.2028 43.5891C40.2028 43.577 40.1484 43.55 40.0819 43.5288C40.0158 43.5078 39.9613 43.4803 39.9613 43.4682C39.9613 43.4565 39.9281 43.4321 39.889 43.4141C39.6296 43.2964 39.0412 42.7443 38.7939 42.3883C38.6429 42.1712 38.4105 41.7365 38.3625 41.5768C38.3444 41.5134 38.3081 41.4199 38.2869 41.3715C38.2658 41.3202 38.2299 41.2118 38.2114 41.1301C38.1934 41.0459 38.1664 40.9582 38.1511 40.9281C38.1363 40.9007 38.1089 40.759 38.0909 40.6112C38.0729 40.4664 38.0397 40.3185 38.0216 40.2853C37.9943 40.2402 37.9822 39.163 37.9763 35.9468L37.9673 31.6718H41.4997L41.4996 35.4127Z" fill="white"/>
<path d="M31.1343 38.0272C30.9816 38.0415 30.8252 38.0646 30.7908 38.079C30.7563 38.0966 30.6441 38.1224 30.5407 38.1426C30.4411 38.1599 30.3065 38.1947 30.2441 38.2206C29.7751 38.4085 29.5471 38.5329 29.3911 38.6832C29.2411 38.8279 29.0908 39.0967 29.0661 39.2643C29.0596 39.322 29.0377 39.3973 29.0191 39.4289C28.9847 39.4956 28.9972 39.7007 29.0535 39.9694C29.1159 40.2614 29.366 40.6172 29.5876 40.7241C29.9815 40.9119 30.0565 40.9407 30.2754 40.9726C30.6688 41.0274 31.4189 40.9959 31.5814 40.9149C31.6094 40.9003 31.7252 40.8512 31.8375 40.805C31.9502 40.756 32.0968 40.6775 32.1657 40.6284C32.2346 40.5794 32.3124 40.5216 32.3407 40.5013C32.5186 40.3773 32.847 39.8742 32.8907 39.6661C32.9 39.614 32.9251 39.5533 32.9438 39.53C32.9656 39.5041 32.9811 39.238 32.9876 38.7611L33 38.0327L32.8311 38.0156C32.6029 37.9894 31.4783 37.9983 31.1343 38.0272Z" fill="white"/>
</svg>
