<svg width="61" height="60" viewBox="0 0 61 60" fill="none" xmlns="http://www.w3.org/2000/svg">
<rect width="60" height="60" transform="translate(0.5)" fill="url(#paint0_linear_42_189)"/>
<path d="M30 9.00021C23.8049 8.97344 17.8523 11.4603 13.447 15.9155C9.04184 20.3707 6.54359 26.4308 6.50002 32.767C6.49574 35.8919 7.10153 38.9861 8.28188 41.8684C9.46222 44.7506 11.1934 47.3627 13.3737 49.5516C14.2974 50.4798 15.5406 51 16.8355 51C18.1305 51 19.3736 50.4798 20.2973 49.5516C20.7518 49.0941 21.1128 48.5487 21.3592 47.9471C21.6056 47.3456 21.7325 46.6999 21.7325 46.0476C21.7325 45.3954 21.6056 44.7497 21.3592 44.1482C21.1128 43.5466 20.7518 43.0012 20.2973 42.5437C19.0262 41.2652 18.0167 39.7406 17.3276 38.0589C16.6385 36.3772 16.2836 34.5721 16.2836 32.7486C16.2836 30.9252 16.6385 29.12 17.3276 27.4383C18.0167 25.7566 19.0262 24.2321 20.2973 22.9535C22.8809 20.3539 26.3599 18.897 29.9841 18.897C33.6083 18.897 37.0873 20.3539 39.6709 22.9535C40.9419 24.2321 41.9515 25.7566 42.6406 27.4383C43.3297 29.12 43.6846 30.9252 43.6846 32.7486C43.6846 34.5721 43.3297 36.3772 42.6406 38.0589C41.9515 39.7406 40.9419 41.2652 39.6709 42.5437C39.2163 43.0012 38.8554 43.5466 38.609 44.1482C38.3626 44.7497 38.2357 45.3954 38.2357 46.0476C38.2357 46.6999 38.3626 47.3456 38.609 47.9471C38.8554 48.5487 39.2163 49.0941 39.6709 49.5516C40.5945 50.4798 41.8377 51 43.1326 51C44.4276 51 45.6708 50.4798 46.5944 49.5516C48.7806 47.3654 50.5176 44.7545 51.7035 41.8722C52.8893 38.9898 53.5001 35.8942 53.5 32.767C53.4564 26.4308 50.9582 20.3707 46.553 15.9155C42.1478 11.4603 36.1951 8.97344 30 9.00021Z" fill="white"/>
<defs>
<linearGradient id="paint0_linear_42_189" x1="0" y1="30" x2="60" y2="30" gradientUnits="userSpaceOnUse">
<stop stop-color="#00A5F0"/>
<stop offset="1" stop-color="#00D7D7"/>
</linearGradient>
</defs>
</svg>
