<svg width="60" height="60" viewBox="0 0 60 60" fill="none" xmlns="http://www.w3.org/2000/svg">
<g clip-path="url(#clip0_40_15)">
<path d="M0 60H60V0H0V60Z" fill="#008752"/>
<path d="M20.0519 23.1582C17.2635 23.1568 14.5186 23.85 12.0653 25.1753C9.61193 26.5005 7.52741 28.416 6 30.7488V54H29.2776C32.2912 52.0099 34.5839 49.1025 35.8162 45.708C37.0486 42.3136 37.1553 38.6126 36.1204 35.1528C35.0854 31.6931 32.964 28.6585 30.07 26.4982C27.176 24.3379 23.6633 23.1668 20.0519 23.1582ZM6 6V25.4092L25.2081 6.20549L53.8132 34.8087L34.602 54H54V6H6Z" fill="white"/>
</g>
<defs>
<clipPath id="clip0_40_15">
<rect width="60" height="60" fill="white"/>
</clipPath>
</defs>
</svg>
