<svg width="60" height="60" viewBox="0 0 60 60" fill="none" xmlns="http://www.w3.org/2000/svg">
<rect width="60" height="60" fill="#D52B1E"/>
<path d="M29.5967 52.0532C42.0748 52.0532 52.1904 41.9363 52.1904 29.4564C52.1904 16.9765 42.0748 6.85962 29.5967 6.85962C17.1185 6.85962 7.00293 16.9765 7.00293 29.4564C7.00293 41.9363 17.1185 52.0532 29.5967 52.0532Z" fill="#D52B1E"/>
<path fill-rule="evenodd" clip-rule="evenodd" d="M46.768 31.0543H39.9186C40.1782 32.5416 41.5963 33.1124 42.8245 33.1124C43.6028 33.1124 44.2945 32.9394 44.9692 32.6283L44.779 34.669C44.0179 34.9803 43.1013 35.1014 42.1846 35.1014C39.1406 35.1014 36.9959 33.3201 36.9959 30.2933C36.9959 27.6643 38.9156 25.6927 41.8559 25.6927C45.1766 25.6927 46.837 27.8027 46.768 31.0543ZM34.384 34.9286C34.2456 34.5998 34.0379 34.0638 33.8651 33.5275L33.4673 32.1957C33.2596 31.4869 32.983 31.1927 32.3083 31.1927H31.1669V34.9286H28.5206V22.7178H31.1669V29.4458H31.461L33.9687 25.8657H36.9089L33.9514 29.6013H34.1071C35.2832 29.6013 35.6291 30.2587 35.9232 31.2273L36.4248 32.905C36.5977 33.5275 36.9611 34.4096 37.2375 34.9286H34.384ZM25.9089 32.905C26.6006 32.905 27.1714 32.7147 27.6038 32.5072L27.3618 34.7038C26.8083 34.9803 26.0298 35.1187 25.3553 35.1187C22.5014 35.1187 20.5299 33.2682 20.5299 30.3798C20.5299 27.5261 22.467 25.6927 25.338 25.6927C26.393 25.6927 27.2061 25.9001 28.036 26.2806L27.2751 28.3215C26.8773 28.0794 26.324 27.8893 25.7358 27.8893C24.2831 27.8893 23.3318 28.8404 23.3318 30.3798C23.3318 31.9018 24.3348 32.9221 25.9089 32.905ZM17.0186 24.7067H19.7167V22.7178H17.0186V24.7067ZM17.0186 34.9286H19.7167V25.8657H17.0186V34.9286ZM47.3392 30.0339V23.8765L50.0372 22.787V26.0385H51.8531L51.4899 28.0621H50.0026V30.1376C50.0026 32.1535 50.7667 33.5734 51.5769 34.7135C51.9791 33.0263 52.1932 31.2662 52.1932 29.4559C52.193 16.9763 42.0762 6.85962 29.5965 6.85962C19.4637 6.85962 10.8889 13.5291 8.02189 22.7178H16.4303L16.1017 25.1391H12.5907V34.9286H9.7194V25.1391H7.41354C7.14329 26.5366 7 27.9795 7 29.4559C7.00019 41.9358 17.1168 52.0524 29.5967 52.0524C40.1891 52.0524 49.0777 44.7639 51.5246 34.9286H48.8611C48.3941 34.1157 47.3219 32.6454 47.3392 30.0339ZM41.9423 27.5605C40.8009 27.5605 40.0745 28.3042 39.8496 29.2901H43.9142C43.7757 28.2006 43.0148 27.5605 41.9423 27.5605Z" fill="white"/>
</svg>
