<svg width="60" height="60" viewBox="0 0 60 60" fill="none" xmlns="http://www.w3.org/2000/svg">
<rect width="60" height="60" fill="#003B43"/>
<path d="M6.65062 7.03493C6.2321 7.06983 5.81358 7.17456 5.42994 7.41891C4.52315 7.94252 4 8.91994 4 9.89735C4 10.3162 4.10463 10.77 4.31389 11.1889L18.3691 35.6591L22.938 27.77L30.3667 14.924L25.7978 7.03493H6.65062Z" fill="#6EBB49"/>
<path d="M56.4194 11.0842C56.5938 10.7002 56.6985 10.2813 56.6985 9.8275C56.6985 8.78028 56.1056 7.83778 55.2685 7.34907C54.8849 7.13963 54.4664 7 54.013 7L25.7979 7.06981L30.3667 14.9589L37.7954 27.77L46.8981 27.7001L56.4194 11.0842Z" fill="#00AE9C"/>
<path d="M27.9949 52.2401C28.239 52.5892 28.5529 52.8685 28.9365 53.1128C29.8433 53.6364 30.9245 53.6015 31.7964 53.1128C32.18 52.9034 32.4939 52.5892 32.7381 52.2052L46.8631 27.77H37.7603L22.9378 27.7351L18.4038 35.6242L27.9949 52.2401Z" fill="#B8D335"/>
</svg>
