<svg width="60" height="60" viewBox="0 0 60 60" fill="none" xmlns="http://www.w3.org/2000/svg">
<g clip-path="url(#clip0_313_350)">
<rect width="60" height="60" fill="#0F89FF"/>
<path d="M45.4961 7H13.5039C9.9119 7 7 9.9119 7 13.5039V45.4961C7 49.0881 9.9119 52 13.5039 52H45.4961C49.0881 52 52 49.0881 52 45.4961V13.5039C52 9.9119 49.0881 7 45.4961 7Z" fill="#0F89FF"/>
<path fill-rule="evenodd" clip-rule="evenodd" d="M36.0592 21.5276C36.5318 21.7751 36.6271 21.7675 37.0763 21.4454C37.197 21.3589 37.2505 21.3599 37.3399 21.4506C37.4313 21.5433 37.3988 21.6124 37.1652 21.8222C36.793 22.1566 36.2882 22.1696 35.7823 21.858C35.3519 21.5928 35.1294 21.5852 34.8247 21.8249C34.634 21.9749 34.5659 21.9889 34.4591 21.9001C34.3433 21.8041 34.3463 21.7703 34.4838 21.6159C34.7033 21.3694 35.1276 21.1962 35.3868 21.2472C35.5077 21.2711 35.8102 21.3973 36.0592 21.5276ZM18.8878 22.7005C19.0704 22.7512 19.3595 22.9153 19.5301 23.0653C19.8129 23.3135 19.8282 23.3501 19.7019 23.4764C19.5882 23.5902 19.5359 23.5952 19.4111 23.5045C19.3274 23.4437 19.0841 23.311 18.8704 23.2097C18.3668 22.9707 17.6741 23.026 17.1946 23.3433C16.1393 24.0416 16.2461 26.0352 17.3693 26.6021C17.9413 26.891 18.7832 26.814 19.3108 26.4247C19.5754 26.2295 19.6154 26.2222 19.7384 26.347C19.8611 26.4713 19.843 26.5133 19.5516 26.7819C18.6051 27.6544 16.7844 27.2781 16.1597 26.0809C15.9781 25.7328 15.9151 24.6042 16.0492 24.1015C16.1757 23.6267 16.8974 22.8735 17.37 22.723C17.7714 22.5952 18.4712 22.5848 18.8878 22.7005ZM23.4001 22.8185C23.6476 22.9338 23.9101 23.1137 23.9835 23.2184C24.1146 23.4057 24.1182 23.4034 24.1961 23.074C24.2545 22.8268 24.3204 22.7392 24.4478 22.7392C24.6138 22.7392 24.6211 22.8196 24.6438 24.9167C24.6647 26.8556 24.6517 27.1 24.5251 27.1486C24.34 27.2197 24.2277 27.0342 24.2261 26.6544L24.2247 26.351L23.8869 26.6809C23.5355 27.0239 22.9294 27.2655 22.4201 27.2655C21.6594 27.2655 20.8402 26.6883 20.556 25.952C20.3522 25.4241 20.3522 24.4488 20.556 23.9209C20.9868 22.8049 22.2879 22.3006 23.4001 22.8185ZM36.4367 22.6938C36.6026 22.7415 36.8868 22.8997 37.0682 23.0454C37.2496 23.1912 37.4176 23.3105 37.4415 23.3105C37.4654 23.3105 37.4974 23.1819 37.5126 23.0248C37.5337 22.8059 37.5863 22.7326 37.7379 22.7111L37.9357 22.683V24.8812C37.9357 26.3133 37.9037 27.0992 37.8439 27.1361C37.6819 27.2362 37.4962 26.9896 37.4962 26.6742V26.368L37.2535 26.628C36.5312 27.4011 35.2457 27.4685 34.4362 26.7756C33.4321 25.9162 33.4401 23.95 34.451 23.0847C34.6477 22.9163 34.9287 22.7436 35.0757 22.7009C35.4447 22.5936 36.0757 22.5903 36.4367 22.6938ZM42.217 22.926C42.8512 23.3181 43.1409 23.852 43.1912 24.7215C43.2383 25.534 43.0886 26.0417 42.6573 26.5329C41.9174 27.3757 40.5675 27.4882 39.6443 26.7841C39.2849 26.5099 38.9148 25.77 38.8459 25.1875C38.7338 24.2411 39.2472 23.2443 40.0589 22.8323C40.4724 22.6225 40.6044 22.5985 41.1647 22.6313C41.674 22.6612 41.8839 22.72 42.217 22.926ZM28.0343 22.7901C28.5011 22.9196 28.9629 23.3658 29.0551 23.7762C29.1877 24.367 28.9548 24.8664 28.3702 25.2451L28.165 25.378L28.6998 26.1924C28.9938 26.6403 29.2345 27.0478 29.2345 27.098C29.2345 27.1483 29.1257 27.1768 28.9928 27.1615C28.7963 27.1389 28.6443 26.9736 28.1798 26.2769L27.6085 25.4202L26.9745 25.42L26.3404 25.4198L26.3153 26.2757C26.2931 27.0326 26.271 27.1354 26.1249 27.1633C26.034 27.1807 25.9259 27.1416 25.8845 27.0764C25.7968 26.938 25.7786 22.8406 25.8654 22.7539C25.96 22.6592 27.6656 22.6877 28.0343 22.7901ZM33.2612 22.9337C33.2879 23.1217 33.26 23.1291 32.4262 23.1534L31.5636 23.1786L31.54 25.184L31.5163 27.1894L31.3202 27.1616C31.1255 27.1339 31.1238 27.1198 31.0802 25.1562L31.0363 23.1786L30.1793 23.1535C29.4226 23.1313 29.3224 23.1098 29.3224 22.9703C29.3224 22.8835 29.3495 22.7853 29.3827 22.7522C29.4158 22.7191 30.2958 22.7025 31.3382 22.7155C33.2191 22.739 33.2337 22.7407 33.2612 22.9337ZM22.0199 23.1256C21.6259 23.254 21.3645 23.4725 21.1432 23.859C20.9642 24.1715 20.9292 24.3493 20.9312 24.9364C20.9331 25.5166 20.9709 25.7057 21.1476 26.0174C21.2653 26.2253 21.4836 26.4707 21.6327 26.5629C22.2207 26.9263 23.0793 26.8633 23.6086 26.4178C24.0381 26.0563 24.1368 25.7786 24.1368 24.9308C24.1368 24.0514 23.951 23.603 23.4606 23.2999C23.143 23.1037 22.3735 23.0106 22.0199 23.1256ZM35.255 23.1352C34.4536 23.3867 34.0213 24.3898 34.2465 25.4748C34.4899 26.6472 35.6429 27.1539 36.6998 26.5528C37.254 26.2376 37.3607 26.0074 37.3943 25.0545C37.4298 24.0486 37.2992 23.6789 36.7889 23.3412C36.4213 23.0979 35.6877 22.9994 35.255 23.1352ZM40.3425 23.2095C39.4291 23.638 39.0787 24.9144 39.5961 25.9286C40.0303 26.7796 41.1237 27.0301 42.0111 26.4816C42.957 25.897 42.9365 23.9779 41.9775 23.3433C41.5194 23.04 40.8247 22.9833 40.3425 23.2095ZM26.3341 24.0494V24.9641L26.8395 24.997C27.5386 25.0425 28.0968 24.9275 28.3356 24.6887C28.8081 24.2163 28.5907 23.4084 27.9427 23.2285C27.7589 23.1774 27.3218 23.1355 26.9713 23.1352L26.3341 23.1347V24.0494ZM13.6151 29.442C13.735 29.5744 13.7593 29.9538 13.7825 32.0567C13.8198 35.4297 13.766 35.3515 16.0481 35.3515C17.7171 35.3515 17.7208 35.3538 17.7208 36.4501C17.7208 37.6031 17.787 37.5709 15.4941 37.5326C13.7706 37.5036 13.6003 37.4863 13.1757 37.2959C12.2433 36.8778 11.652 35.9423 11.4791 34.6117C11.3586 33.685 11.3699 29.8462 11.4938 29.6108C11.6507 29.3127 11.7314 29.2898 12.6315 29.2883C13.3266 29.2873 13.4995 29.3143 13.6151 29.442ZM20.3783 29.4408C20.4915 29.569 20.5201 29.9839 20.55 31.9285C20.5849 34.194 20.5922 34.2749 20.8013 34.6925C21.0865 35.2619 21.3557 35.4438 21.992 35.4968C22.4184 35.5324 22.581 35.5036 22.9044 35.3359C23.6243 34.9624 23.6461 34.8727 23.704 32.0556C23.7318 30.7021 23.7615 29.5876 23.7699 29.5789C24.0437 29.299 24.0905 29.2871 24.9121 29.2883C25.3801 29.2891 25.8097 29.3195 25.8671 29.3561C26.0995 29.5039 26.1583 29.9662 26.1583 31.6461C26.1583 34.2884 25.9872 35.2413 25.3394 36.2049C24.6031 37.3004 23.0445 37.8689 21.4122 37.6374C20.1866 37.4635 19.2138 36.8305 18.7423 35.9C18.2454 34.9192 18.2053 34.6278 18.2048 31.9828C18.2041 29.071 18.1089 29.287 19.3939 29.287C20.0917 29.287 20.2666 29.3144 20.3783 29.4408ZM29.9376 29.4628C30.108 29.6331 30.1134 29.7557 30.1134 33.4179C30.1134 37.9353 30.2258 37.5487 28.9118 37.5487C28.2442 37.5487 28.0273 37.5175 27.9011 37.4033C27.75 37.2666 27.7404 37.0268 27.7404 33.4332C27.7404 29.9976 27.7551 29.5921 27.8858 29.4478C28.008 29.3128 28.1699 29.287 28.8966 29.287C29.6447 29.287 29.7857 29.3108 29.9376 29.4628ZM38.3901 29.4325C38.5242 29.5538 38.5509 29.7154 38.5509 30.4058V31.2336L38.0495 31.7764C37.7738 32.075 36.8744 33.0015 36.0509 33.8354L34.5537 35.3515H36.4108C38.6176 35.3515 38.6397 35.3594 38.7068 36.1678C38.7293 36.4394 38.7217 36.8007 38.6898 36.9706C38.5771 37.5713 38.7196 37.5487 35.0458 37.5487C32.3398 37.5487 31.698 37.5261 31.5606 37.4255C31.4264 37.3275 31.3853 37.1663 31.3584 36.6348C31.3398 36.2676 31.3504 35.8648 31.3818 35.7395C31.4148 35.6083 32.2731 34.6494 33.4081 33.4761L35.3772 31.4403L33.5017 31.4167C32.0158 31.398 31.6049 31.3672 31.5233 31.269C31.39 31.1084 31.3043 30.2725 31.3799 29.8698C31.4935 29.2643 31.3539 29.287 34.9687 29.287C37.8795 29.287 38.2467 29.3027 38.3901 29.4325ZM44.6963 29.4408C44.8213 29.5429 45.3732 30.8627 46.3359 33.3615C48.0739 37.873 48.0537 37.5487 46.5973 37.5487C45.7168 37.5487 45.6761 37.5402 45.5028 37.3199C45.4037 37.1939 45.2346 36.8174 45.1269 36.483L44.931 35.8749L43.3564 35.8989L41.7817 35.9228L41.5349 36.6225C41.3991 37.0073 41.2183 37.3732 41.1331 37.4355C40.944 37.5738 39.4969 37.5908 39.2482 37.4578C39.1547 37.4077 39.0782 37.2807 39.0782 37.1755C39.0782 36.8409 41.8874 29.6073 42.082 29.4408C42.2329 29.3117 42.4423 29.287 43.3849 29.287C44.3242 29.287 44.5388 29.3122 44.6963 29.4408ZM42.923 32.4841C42.696 33.1287 42.4852 33.7211 42.4547 33.8006C42.4054 33.9292 42.5025 33.9452 43.3315 33.9452C43.8443 33.9452 44.2638 33.9161 44.2638 33.8805C44.2638 33.7785 43.4505 31.4477 43.3901 31.3763C43.3602 31.3409 43.15 31.8395 42.923 32.4841Z" fill="white"/>
<mask id="mask0_313_350" style="mask-type:alpha" maskUnits="userSpaceOnUse" x="-8" y="56" width="80" height="5">
<path d="M72 56H-8V60.4824H72V56Z" fill="#D9D9D9"/>
</mask>
<g mask="url(#mask0_313_350)">
<path d="M60.4375 15.4824H3.5625C-2.82329 15.4824 -8 18.3943 -8 21.9863V53.9785C-8 57.5705 -2.82329 60.4824 3.5625 60.4824H60.4375C66.8233 60.4824 72 57.5705 72 53.9785V21.9863C72 18.3943 66.8233 15.4824 60.4375 15.4824Z" fill="url(#paint0_linear_313_350)"/>
</g>
</g>
<defs>
<linearGradient id="paint0_linear_313_350" x1="-8" y1="60.4824" x2="72" y2="60.4824" gradientUnits="userSpaceOnUse">
<stop stop-color="#FFD81C"/>
<stop offset="0.177083" stop-color="#FF4326"/>
<stop offset="0.348958" stop-color="#FA14B6"/>
<stop offset="0.526042" stop-color="#9703F2"/>
<stop offset="0.682292" stop-color="#632BFF"/>
<stop offset="0.84375" stop-color="#0DADFF"/>
<stop offset="1" stop-color="#13FF52"/>
</linearGradient>
<clipPath id="clip0_313_350">
<rect width="60" height="60" fill="white"/>
</clipPath>
</defs>
</svg>
